<svg width="2750" height="2751" viewBox="0 0 2750 2751" fill="none" xmlns="http://www.w3.org/2000/svg">
<path d="M0.000169542 2750.34H2750V0C2639 0 2586.85 80 2475 80C2363.15 80 2311.85 0 2200 0C2088.15 0 2036.85 80 1925 80C1813.15 80 1761.85 0 1650 0C1538.15 0 1486.85 80 1375 80C1263.15 80 1211.85 0 1100 0C988.154 0 936.847 80 825.001 80C713.154 80 661.847 3.32901e-06 550.001 0C438.154 -3.32901e-06 386.847 80 275 80C163.154 80 110.5 0 0.000169542 0C-0.000211928 44.4992 0.000169542 2750.34 0.000169542 2750.34Z" fill="#8E93AC" fill-opacity="0.2"/>
</svg>
