<svg width="1564" height="1482" viewBox="0 0 1564 1482" fill="none" xmlns="http://www.w3.org/2000/svg">
<path d="M1500 1C1500 1 1508.61 1.71273 1515 3.50002C1517.64 4.23701 1518.5 4.62494 1518.5 4.62494L1521.75 5.93744L1523.38 7.59369L1526 7.24994L1531.5 7.87494L1534.75 12.1874L1539 11.4999L1544.5 13.1249L1547.75 17.4374L1551 15.7499L1554.25 18.0624L1557.5 18.3749C1557.5 18.3749 1564 18.2623 1564 20.9999C1564 22.5 1564 1463 1564 1463C1564 1477.5 1502 1481.5 1500.5 1481.5C1500.5 1481.5 66.9991 1481.83 50 1482C1 1482.5 0 1455 0 1455V24L24 1H1500Z" fill="#D9DCDD"/>
<path d="M48 1482H1492.5C1492.5 1482 1564 1478.5 1564 1463C1549.5 1450 1503.5 1467.5 1503.5 1467.5L0 1439V1456.5C5.73127 1478.24 31 1482 48 1482Z" fill="black" fill-opacity="0.16"/>
<path d="M0 16C0 7.16343 7.16344 0 16 0H1496C1504.84 0 1512 7.16344 1512 16V1454C1512 1462.84 1504.84 1470 1496 1470H16C7.16347 1470 0 1462.84 0 1454V16Z" fill="white"/>
<line y1="78" x2="1465" y2="78" stroke="#A3C0D5" stroke-width="2"/>
<line y1="118" x2="1465" y2="118" stroke="#A3C0D5" stroke-width="2"/>
<line y1="158" x2="1465" y2="158" stroke="#A3C0D5" stroke-width="2"/>
<line y1="198" x2="1465" y2="198" stroke="#A3C0D5" stroke-width="2"/>
<line y1="238" x2="1465" y2="238" stroke="#A3C0D5" stroke-width="2"/>
<line y1="278" x2="1465" y2="278" stroke="#A3C0D5" stroke-width="2"/>
<line y1="318" x2="1465" y2="318" stroke="#A3C0D5" stroke-width="2"/>
<line y1="358" x2="1465" y2="358" stroke="#A3C0D5" stroke-width="2"/>
<line y1="398" x2="1465" y2="398" stroke="#A3C0D5" stroke-width="2"/>
<line y1="438" x2="1465" y2="438" stroke="#A3C0D5" stroke-width="2"/>
<line y1="478" x2="1465" y2="478" stroke="#A3C0D5" stroke-width="2"/>
<line y1="518" x2="1465" y2="518" stroke="#A3C0D5" stroke-width="2"/>
<line y1="558" x2="1465" y2="558" stroke="#A3C0D5" stroke-width="2"/>
<line y1="598" x2="1465" y2="598" stroke="#A3C0D5" stroke-width="2"/>
<line y1="638" x2="1465" y2="638" stroke="#A3C0D5" stroke-width="2"/>
<line y1="678" x2="1465" y2="678" stroke="#A3C0D5" stroke-width="2"/>
<line y1="718" x2="1465" y2="718" stroke="#A3C0D5" stroke-width="2"/>
<line y1="758" x2="1465" y2="758" stroke="#A3C0D5" stroke-width="2"/>
<line y1="798" x2="1465" y2="798" stroke="#A3C0D5" stroke-width="2"/>
<line y1="838" x2="1465" y2="838" stroke="#A3C0D5" stroke-width="2"/>
<line y1="878" x2="1465" y2="878" stroke="#A3C0D5" stroke-width="2"/>
<line y1="918" x2="1465" y2="918" stroke="#A3C0D5" stroke-width="2"/>
<line y1="958" x2="1465" y2="958" stroke="#A3C0D5" stroke-width="2"/>
<line y1="998" x2="1465" y2="998" stroke="#A3C0D5" stroke-width="2"/>
<line y1="1038" x2="1465" y2="1038" stroke="#A3C0D5" stroke-width="2"/>
<line y1="1078" x2="1465" y2="1078" stroke="#A3C0D5" stroke-width="2"/>
<line y1="1118" x2="1465" y2="1118" stroke="#A3C0D5" stroke-width="2"/>
<line y1="1158" x2="1465" y2="1158" stroke="#A3C0D5" stroke-width="2"/>
<line y1="1198" x2="1465" y2="1198" stroke="#A3C0D5" stroke-width="2"/>
<line y1="1238" x2="1465" y2="1238" stroke="#A3C0D5" stroke-width="2"/>
<line y1="1278" x2="1465" y2="1278" stroke="#A3C0D5" stroke-width="2"/>
<line y1="1318" x2="1465" y2="1318" stroke="#A3C0D5" stroke-width="2"/>
<line y1="1358" x2="1465" y2="1358" stroke="#A3C0D5" stroke-width="2"/>
<line y1="1398" x2="1465" y2="1398" stroke="#A3C0D5" stroke-width="2"/>
<line y1="1438" x2="1465" y2="1438" stroke="#A3C0D5" stroke-width="2"/>
<line x1="116" y1="-4.37114e-08" x2="116" y2="1470" stroke="#FD0800" stroke-opacity="0.3" stroke-width="2"/>
<circle cx="46" cy="139" r="17" fill="#6A6A6A"/>
<path d="M46 122C49.9383 122 53.5631 123.34 56.4453 125.588C55.0283 125.205 53.5381 125 52 125C42.6112 125 35 132.611 35 142C35 147.45 37.5654 152.3 41.5537 155.411C34.3215 153.456 29 146.85 29 139C29 129.611 36.6112 122 46 122Z" fill="white" fill-opacity="0.4"/>
<circle cx="45" cy="939" r="17" fill="#6A6A6A"/>
<path d="M45 922C48.9383 922 52.5631 923.34 55.4453 925.588C54.0283 925.205 52.5381 925 51 925C41.6112 925 34 932.611 34 942C34 947.45 36.5654 952.3 40.5537 955.411C33.3215 953.456 28 946.85 28 939C28 929.611 35.6112 922 45 922Z" fill="white" fill-opacity="0.4"/>
<circle cx="46" cy="219" r="17" fill="#6A6A6A"/>
<path d="M46 202C49.9383 202 53.5631 203.34 56.4453 205.588C55.0283 205.205 53.5381 205 52 205C42.6112 205 35 212.611 35 222C35 227.45 37.5654 232.3 41.5537 235.411C34.3215 233.456 29 226.85 29 219C29 209.611 36.6112 202 46 202Z" fill="white" fill-opacity="0.4"/>
<circle cx="45" cy="1019" r="17" fill="#6A6A6A"/>
<path d="M45 1002C48.9383 1002 52.5631 1003.34 55.4453 1005.59C54.0283 1005.21 52.5381 1005 51 1005C41.6112 1005 34 1012.61 34 1022C34 1027.45 36.5654 1032.3 40.5537 1035.41C33.3215 1033.46 28 1026.85 28 1019C28 1009.61 35.6112 1002 45 1002Z" fill="white" fill-opacity="0.4"/>
<mask id="mask0_1161_20734" style="mask-type:alpha" maskUnits="userSpaceOnUse" x="1500" y="1" width="64" height="1502">
<path d="M1500 1C1500 1 1508.61 1.71272 1515 3.50001C1517.64 4.23701 1518.5 4.62493 1518.5 4.62493L1521.75 5.93743L1523.38 7.59368L1526 7.24993L1531.5 7.87493L1534.75 12.1874L1539 11.4999L1544.5 13.1249L1547.75 17.4374L1551 15.7499L1554.25 18.0624L1557.5 18.3749C1557.5 18.3749 1564 18.2623 1564 20.9999C1564 22.5 1564 1503 1564 1503H1500V1Z" fill="#8F8F8F"/>
</mask>
<g mask="url(#mask0_1161_20734)">
<path d="M1556 18.6406C1556 18.2428 1555.84 17.8613 1555.56 17.58C1555.28 17.2987 1554.9 17.1406 1554.5 17.1406C1554.1 17.1406 1553.72 17.2987 1553.44 17.58C1553.16 17.8613 1553 18.2428 1553 18.6406C1553.02 43.024 1553.05 67.4073 1553.07 91.7906C1553.52 530.691 1553.97 969.591 1554.42 1408.49C1554.45 1432.87 1554.47 1457.26 1554.5 1481.64C1554.52 1457.26 1554.55 1432.87 1554.57 1408.49C1555.02 969.591 1555.47 530.691 1555.92 91.7906C1555.95 67.4073 1555.97 43.024 1556 18.6406Z" fill="white" fill-opacity="0.17"/>
<path d="M1552 10.6406C1552 10.2428 1551.84 9.86127 1551.56 9.57997C1551.28 9.29866 1550.9 9.14063 1550.5 9.14063C1550.1 9.14063 1549.72 9.29866 1549.44 9.57996C1549.16 9.86127 1549 10.2428 1549 10.6406C1549.02 35.024 1549.05 59.4073 1549.07 83.7906C1549.52 522.691 1549.97 961.591 1550.42 1400.49C1550.45 1424.87 1550.47 1449.26 1550.5 1473.64C1550.52 1449.26 1550.55 1424.87 1550.57 1400.49C1551.02 961.591 1551.47 522.691 1551.92 83.7906C1551.95 59.4073 1551.97 35.024 1552 10.6406Z" fill="white" fill-opacity="0.17"/>
<path d="M1539 2.64063C1539 2.2428 1538.84 1.86127 1538.56 1.57997C1538.28 1.29866 1537.9 1.14063 1537.5 1.14063C1537.1 1.14063 1536.72 1.29866 1536.44 1.57996C1536.16 1.86127 1536 2.2428 1536 2.64062C1536.02 27.024 1536.05 51.4073 1536.07 75.7906C1536.52 514.691 1536.97 953.591 1537.42 1392.49C1537.45 1416.87 1537.47 1441.26 1537.5 1465.64C1537.52 1441.26 1537.55 1416.87 1537.57 1392.49C1538.02 953.591 1538.47 514.691 1538.92 75.7906C1538.95 51.4073 1538.97 27.024 1539 2.64063Z" fill="white" fill-opacity="0.17"/>
<path d="M1535 2.64063C1535 2.2428 1534.84 1.86127 1534.56 1.57997C1534.28 1.29866 1533.9 1.14063 1533.5 1.14063C1533.1 1.14063 1532.72 1.29866 1532.44 1.57996C1532.16 1.86127 1532 2.2428 1532 2.64062C1532.02 27.024 1532.05 51.4073 1532.07 75.7906C1532.52 514.691 1532.97 953.591 1533.42 1392.49C1533.45 1416.87 1533.47 1441.26 1533.5 1465.64C1533.52 1441.26 1533.55 1416.87 1533.57 1392.49C1534.02 953.591 1534.47 514.691 1534.92 75.7906C1534.95 51.4073 1534.97 27.024 1535 2.64063Z" fill="white" fill-opacity="0.17"/>
<path d="M1542 8.64063C1542 8.2428 1541.84 7.86127 1541.56 7.57997C1541.28 7.29866 1540.9 7.14063 1540.5 7.14063C1540.1 7.14063 1539.72 7.29866 1539.44 7.57996C1539.16 7.86127 1539 8.2428 1539 8.64062C1539.02 33.024 1539.05 57.4073 1539.07 81.7906C1539.52 520.691 1539.97 959.591 1540.42 1398.49C1540.45 1422.87 1540.47 1447.26 1540.5 1471.64C1540.52 1447.26 1540.55 1422.87 1540.57 1398.49C1541.02 959.591 1541.47 520.691 1541.92 81.7906C1541.95 57.4073 1541.97 33.024 1542 8.64063Z" fill="white" fill-opacity="0.17"/>
<path d="M1521 3.64063C1521 3.2428 1520.84 2.86127 1520.56 2.57997C1520.28 2.29866 1519.9 2.14063 1519.5 2.14063C1519.1 2.14063 1518.72 2.29866 1518.44 2.57996C1518.16 2.86127 1518 3.2428 1518 3.64062C1518.02 28.024 1518.05 52.4073 1518.07 76.7906C1518.52 515.691 1518.97 954.591 1519.42 1393.49C1519.45 1417.87 1519.47 1442.26 1519.5 1466.64C1519.52 1442.26 1519.55 1417.87 1519.57 1393.49C1520.02 954.591 1520.47 515.691 1520.92 76.7906C1520.95 52.4073 1520.97 28.024 1521 3.64063Z" fill="white" fill-opacity="0.17"/>
<path d="M1525 4.64063C1525 4.2428 1524.84 3.86127 1524.56 3.57997C1524.28 3.29866 1523.9 3.14063 1523.5 3.14063C1523.1 3.14063 1522.72 3.29866 1522.44 3.57996C1522.16 3.86127 1522 4.2428 1522 4.64062C1522.02 29.024 1522.05 53.4073 1522.07 77.7906C1522.52 516.691 1522.97 955.591 1523.42 1394.49C1523.45 1418.87 1523.47 1443.26 1523.5 1467.64C1523.52 1443.26 1523.55 1418.87 1523.57 1394.49C1524.02 955.591 1524.47 516.691 1524.92 77.7906C1524.95 53.4073 1524.97 29.024 1525 4.64063Z" fill="white" fill-opacity="0.17"/>
</g>
</svg>
