<svg width="1710" height="1627" viewBox="0 0 1710 1627" fill="none" xmlns="http://www.w3.org/2000/svg">
<g filter="url(#filter0_d_1043_3395)">
<path d="M1562 65C1562 65 1570.61 65.7127 1577 67.5C1579.64 68.237 1580.5 68.6249 1580.5 68.6249L1583.75 69.9374L1585.38 71.5937L1588 71.2499L1593.5 71.8749L1596.75 76.1874L1601 75.4999L1606.5 77.1249L1609.75 81.4374L1613 79.7499L1616.25 82.0624L1619.5 82.3749C1619.5 82.3749 1626 82.2623 1626 84.9999C1626 86.5 1626 1527 1626 1527C1626 1541.5 1564 1545.5 1562.5 1545.5C1562.5 1545.5 128.999 1545.83 112 1546C63 1546.5 62 1519 62 1519V88L86 65H1562Z" fill="#D9DCDD"/>
</g>
<path d="M110 1546H1554.5C1554.5 1546 1626 1542.5 1626 1527C1611.5 1514 1565.5 1531.5 1565.5 1531.5L62 1503V1520.5C67.7313 1542.24 93 1546 110 1546Z" fill="black" fill-opacity="0.16"/>
<path d="M62 80C62 71.1634 69.1634 64 78 64H1558C1566.84 64 1574 71.1634 1574 80V1518C1574 1526.84 1566.84 1534 1558 1534H78C69.1635 1534 62 1526.84 62 1518V80Z" fill="white"/>
<line x1="62" y1="142" x2="1527" y2="142" stroke="#A3C0D5" stroke-width="2"/>
<line x1="62" y1="182" x2="1527" y2="182" stroke="#A3C0D5" stroke-width="2"/>
<line x1="62" y1="222" x2="1527" y2="222" stroke="#A3C0D5" stroke-width="2"/>
<line x1="62" y1="262" x2="1527" y2="262" stroke="#A3C0D5" stroke-width="2"/>
<line x1="62" y1="302" x2="1527" y2="302" stroke="#A3C0D5" stroke-width="2"/>
<line x1="62" y1="342" x2="1527" y2="342" stroke="#A3C0D5" stroke-width="2"/>
<line x1="62" y1="382" x2="1527" y2="382" stroke="#A3C0D5" stroke-width="2"/>
<line x1="62" y1="422" x2="1527" y2="422" stroke="#A3C0D5" stroke-width="2"/>
<line x1="62" y1="462" x2="1527" y2="462" stroke="#A3C0D5" stroke-width="2"/>
<line x1="62" y1="502" x2="1527" y2="502" stroke="#A3C0D5" stroke-width="2"/>
<line x1="62" y1="542" x2="1527" y2="542" stroke="#A3C0D5" stroke-width="2"/>
<line x1="62" y1="582" x2="1527" y2="582" stroke="#A3C0D5" stroke-width="2"/>
<line x1="62" y1="622" x2="1527" y2="622" stroke="#A3C0D5" stroke-width="2"/>
<line x1="62" y1="662" x2="1527" y2="662" stroke="#A3C0D5" stroke-width="2"/>
<line x1="62" y1="702" x2="1527" y2="702" stroke="#A3C0D5" stroke-width="2"/>
<line x1="62" y1="742" x2="1527" y2="742" stroke="#A3C0D5" stroke-width="2"/>
<line x1="62" y1="782" x2="1527" y2="782" stroke="#A3C0D5" stroke-width="2"/>
<line x1="62" y1="822" x2="1527" y2="822" stroke="#A3C0D5" stroke-width="2"/>
<line x1="62" y1="862" x2="1527" y2="862" stroke="#A3C0D5" stroke-width="2"/>
<line x1="62" y1="902" x2="1527" y2="902" stroke="#A3C0D5" stroke-width="2"/>
<line x1="62" y1="942" x2="1527" y2="942" stroke="#A3C0D5" stroke-width="2"/>
<line x1="62" y1="982" x2="1527" y2="982" stroke="#A3C0D5" stroke-width="2"/>
<line x1="62" y1="1022" x2="1527" y2="1022" stroke="#A3C0D5" stroke-width="2"/>
<line x1="62" y1="1062" x2="1527" y2="1062" stroke="#A3C0D5" stroke-width="2"/>
<line x1="62" y1="1102" x2="1527" y2="1102" stroke="#A3C0D5" stroke-width="2"/>
<line x1="62" y1="1142" x2="1527" y2="1142" stroke="#A3C0D5" stroke-width="2"/>
<line x1="62" y1="1182" x2="1527" y2="1182" stroke="#A3C0D5" stroke-width="2"/>
<line x1="62" y1="1222" x2="1527" y2="1222" stroke="#A3C0D5" stroke-width="2"/>
<line x1="62" y1="1262" x2="1527" y2="1262" stroke="#A3C0D5" stroke-width="2"/>
<line x1="62" y1="1302" x2="1527" y2="1302" stroke="#A3C0D5" stroke-width="2"/>
<line x1="62" y1="1342" x2="1527" y2="1342" stroke="#A3C0D5" stroke-width="2"/>
<line x1="62" y1="1382" x2="1527" y2="1382" stroke="#A3C0D5" stroke-width="2"/>
<line x1="62" y1="1422" x2="1527" y2="1422" stroke="#A3C0D5" stroke-width="2"/>
<line x1="62" y1="1462" x2="1527" y2="1462" stroke="#A3C0D5" stroke-width="2"/>
<line x1="62" y1="1502" x2="1527" y2="1502" stroke="#A3C0D5" stroke-width="2"/>
<line x1="178" y1="64" x2="178" y2="1534" stroke="#FD0800" stroke-opacity="0.3" stroke-width="2"/>
<circle cx="108" cy="203" r="17" fill="#6A6A6A"/>
<path d="M108 186C111.938 186 115.563 187.34 118.445 189.588C117.028 189.205 115.538 189 114 189C104.611 189 97 196.611 97 206C97 211.45 99.5654 216.3 103.554 219.411C96.3215 217.456 91 210.85 91 203C91 193.611 98.6112 186 108 186Z" fill="white" fill-opacity="0.4"/>
<circle cx="107" cy="1003" r="17" fill="#6A6A6A"/>
<path d="M107 986C110.938 986 114.563 987.34 117.445 989.588C116.028 989.205 114.538 989 113 989C103.611 989 96 996.611 96 1006C96 1011.45 98.5654 1016.3 102.554 1019.41C95.3215 1017.46 90 1010.85 90 1003C90 993.611 97.6112 986 107 986Z" fill="white" fill-opacity="0.4"/>
<circle cx="108" cy="283" r="17" fill="#6A6A6A"/>
<path d="M108 266C111.938 266 115.563 267.34 118.445 269.588C117.028 269.205 115.538 269 114 269C104.611 269 97 276.611 97 286C97 291.45 99.5654 296.3 103.554 299.411C96.3215 297.456 91 290.85 91 283C91 273.611 98.6112 266 108 266Z" fill="white" fill-opacity="0.4"/>
<circle cx="107" cy="1083" r="17" fill="#6A6A6A"/>
<path d="M107 1066C110.938 1066 114.563 1067.34 117.445 1069.59C116.028 1069.21 114.538 1069 113 1069C103.611 1069 96 1076.61 96 1086C96 1091.45 98.5654 1096.3 102.554 1099.41C95.3215 1097.46 90 1090.85 90 1083C90 1073.61 97.6112 1066 107 1066Z" fill="white" fill-opacity="0.4"/>
<mask id="mask0_1043_3395" style="mask-type:alpha" maskUnits="userSpaceOnUse" x="1562" y="65" width="64" height="1502">
<path d="M1562 65C1562 65 1570.61 65.7127 1577 67.5C1579.64 68.237 1580.5 68.6249 1580.5 68.6249L1583.75 69.9374L1585.38 71.5937L1588 71.2499L1593.5 71.8749L1596.75 76.1874L1601 75.4999L1606.5 77.1249L1609.75 81.4374L1613 79.7499L1616.25 82.0624L1619.5 82.3749C1619.5 82.3749 1626 82.2623 1626 84.9999C1626 86.5 1626 1567 1626 1567H1562V65Z" fill="#8F8F8F"/>
</mask>
<g mask="url(#mask0_1043_3395)">
<path d="M1618 82.6406C1618 82.2428 1617.84 81.8613 1617.56 81.58C1617.28 81.2987 1616.9 81.1406 1616.5 81.1406C1616.1 81.1406 1615.72 81.2987 1615.44 81.58C1615.16 81.8613 1615 82.2428 1615 82.6406C1615.02 107.024 1615.05 131.407 1615.07 155.791C1615.52 594.691 1615.97 1033.59 1616.42 1472.49C1616.45 1496.87 1616.47 1521.26 1616.5 1545.64C1616.52 1521.26 1616.55 1496.87 1616.57 1472.49C1617.02 1033.59 1617.47 594.691 1617.92 155.791C1617.95 131.407 1617.97 107.024 1618 82.6406Z" fill="white" fill-opacity="0.17"/>
<path d="M1614 74.6406C1614 74.2428 1613.84 73.8613 1613.56 73.58C1613.28 73.2987 1612.9 73.1406 1612.5 73.1406C1612.1 73.1406 1611.72 73.2987 1611.44 73.58C1611.16 73.8613 1611 74.2428 1611 74.6406C1611.02 99.024 1611.05 123.407 1611.07 147.791C1611.52 586.691 1611.97 1025.59 1612.42 1464.49C1612.45 1488.87 1612.47 1513.26 1612.5 1537.64C1612.52 1513.26 1612.55 1488.87 1612.57 1464.49C1613.02 1025.59 1613.47 586.691 1613.92 147.791C1613.95 123.407 1613.97 99.024 1614 74.6406Z" fill="white" fill-opacity="0.17"/>
<path d="M1601 66.6406C1601 66.2428 1600.84 65.8613 1600.56 65.58C1600.28 65.2987 1599.9 65.1406 1599.5 65.1406C1599.1 65.1406 1598.72 65.2987 1598.44 65.58C1598.16 65.8613 1598 66.2428 1598 66.6406C1598.02 91.024 1598.05 115.407 1598.07 139.791C1598.52 578.691 1598.97 1017.59 1599.42 1456.49C1599.45 1480.87 1599.47 1505.26 1599.5 1529.64C1599.52 1505.26 1599.55 1480.87 1599.57 1456.49C1600.02 1017.59 1600.47 578.691 1600.92 139.791C1600.95 115.407 1600.97 91.024 1601 66.6406Z" fill="white" fill-opacity="0.17"/>
<path d="M1597 66.6406C1597 66.2428 1596.84 65.8613 1596.56 65.58C1596.28 65.2987 1595.9 65.1406 1595.5 65.1406C1595.1 65.1406 1594.72 65.2987 1594.44 65.58C1594.16 65.8613 1594 66.2428 1594 66.6406C1594.02 91.024 1594.05 115.407 1594.07 139.791C1594.52 578.691 1594.97 1017.59 1595.42 1456.49C1595.45 1480.87 1595.47 1505.26 1595.5 1529.64C1595.52 1505.26 1595.55 1480.87 1595.57 1456.49C1596.02 1017.59 1596.47 578.691 1596.92 139.791C1596.95 115.407 1596.97 91.024 1597 66.6406Z" fill="white" fill-opacity="0.17"/>
<path d="M1604 72.6406C1604 72.2428 1603.84 71.8613 1603.56 71.58C1603.28 71.2987 1602.9 71.1406 1602.5 71.1406C1602.1 71.1406 1601.72 71.2987 1601.44 71.58C1601.16 71.8613 1601 72.2428 1601 72.6406C1601.02 97.024 1601.05 121.407 1601.07 145.791C1601.52 584.691 1601.97 1023.59 1602.42 1462.49C1602.45 1486.87 1602.47 1511.26 1602.5 1535.64C1602.52 1511.26 1602.55 1486.87 1602.57 1462.49C1603.02 1023.59 1603.47 584.691 1603.92 145.791C1603.95 121.407 1603.97 97.024 1604 72.6406Z" fill="white" fill-opacity="0.17"/>
<path d="M1583 67.6406C1583 67.2428 1582.84 66.8613 1582.56 66.58C1582.28 66.2987 1581.9 66.1406 1581.5 66.1406C1581.1 66.1406 1580.72 66.2987 1580.44 66.58C1580.16 66.8613 1580 67.2428 1580 67.6406C1580.02 92.024 1580.05 116.407 1580.07 140.791C1580.52 579.691 1580.97 1018.59 1581.42 1457.49C1581.45 1481.87 1581.47 1506.26 1581.5 1530.64C1581.52 1506.26 1581.55 1481.87 1581.57 1457.49C1582.02 1018.59 1582.47 579.691 1582.92 140.791C1582.95 116.407 1582.97 92.024 1583 67.6406Z" fill="white" fill-opacity="0.17"/>
<path d="M1587 68.6406C1587 68.2428 1586.84 67.8613 1586.56 67.58C1586.28 67.2987 1585.9 67.1406 1585.5 67.1406C1585.1 67.1406 1584.72 67.2987 1584.44 67.58C1584.16 67.8613 1584 68.2428 1584 68.6406C1584.02 93.024 1584.05 117.407 1584.07 141.791C1584.52 580.691 1584.97 1019.59 1585.42 1458.49C1585.45 1482.87 1585.47 1507.26 1585.5 1531.64C1585.52 1507.26 1585.55 1482.87 1585.57 1458.49C1586.02 1019.59 1586.47 580.691 1586.92 141.791C1586.95 117.407 1586.97 93.024 1587 68.6406Z" fill="white" fill-opacity="0.17"/>
</g>
<defs>
<filter id="filter0_d_1043_3395" x="0" y="0" width="1710" height="1627.01" filterUnits="userSpaceOnUse" color-interpolation-filters="sRGB">
<feFlood flood-opacity="0" result="BackgroundImageFix"/>
<feColorMatrix in="SourceAlpha" type="matrix" values="0 0 0 0 0 0 0 0 0 0 0 0 0 0 0 0 0 0 127 0" result="hardAlpha"/>
<feOffset dx="11" dy="8"/>
<feGaussianBlur stdDeviation="36.5"/>
<feComposite in2="hardAlpha" operator="out"/>
<feColorMatrix type="matrix" values="0 0 0 0 0.106795 0 0 0 0 0.215984 0 0 0 0 0.25693 0 0 0 0.25 0"/>
<feBlend mode="normal" in2="BackgroundImageFix" result="effect1_dropShadow_1043_3395"/>
<feBlend mode="normal" in="SourceGraphic" in2="effect1_dropShadow_1043_3395" result="shape"/>
</filter>
</defs>
</svg>
