<svg width="407" height="805" viewBox="0 0 407 805" fill="none" xmlns="http://www.w3.org/2000/svg">
<path fill-rule="evenodd" clip-rule="evenodd" d="M225.124 804.439L282.418 755.861L331.779 693.152L350.289 670.188L366.155 557.135L397.887 482.945L404.938 466.163L406.701 369.892L405.82 357.526L396.124 316.898L374.969 249.773L320.32 173.815L322.964 131.421L290.351 119.055L269.196 89.0257L225.124 0.703125L198.674 53.7648L181.052 89.9089L161.661 105.807L120.233 141.136L82.3313 207.378L38.2593 271.854L31.2078 316.898L29.4449 327.497L15.3419 357.526L10.0533 368.125L0.357422 414.936L18.8676 510.325L52.3623 641.925L113.182 679.904L225.124 804.439Z" fill="#F0F0F0"/>
<path fill-rule="evenodd" clip-rule="evenodd" d="M225.128 804.439L282.421 755.861L331.782 693.152L350.292 670.188L366.158 557.135L404.941 466.163L406.704 369.892L405.823 357.526L396.127 316.898L374.972 249.773L320.323 173.815L322.967 131.421L290.354 119.055L269.2 89.0257L225.128 0.703125L216.313 136.72L203.092 172.049L193.997 252.518L188.107 328.38L152.85 327.497V418.469L193.396 440.55L223.365 482.945L262.148 603.946V675.488L238.349 673.721L224.246 756.745L225.128 804.439Z" fill="#A1A7AF"/>
<g opacity="0.88">
<path fill-rule="evenodd" clip-rule="evenodd" d="M203.092 172.051L120.236 141.138L161.664 105.809L216.313 136.722L203.092 172.051Z" fill="white"/>
<path fill-rule="evenodd" clip-rule="evenodd" d="M203.092 172.05L188.107 328.381L152.85 327.497L120.236 141.137L203.092 172.05Z" fill="#DEDEDE"/>
<path fill-rule="evenodd" clip-rule="evenodd" d="M216.312 136.721L231.296 198.547L223.363 385.79L188.105 328.381L203.09 172.05L216.312 136.721Z" fill="#929AA5"/>
<path fill-rule="evenodd" clip-rule="evenodd" d="M188.107 328.381L152.85 327.498V418.47L223.365 385.791L188.107 328.381Z" fill="#BCBFC3"/>
<path fill-rule="evenodd" clip-rule="evenodd" d="M120.236 141.137L152.849 327.497L82.334 207.379L120.236 141.137Z" fill="white"/>
<path fill-rule="evenodd" clip-rule="evenodd" d="M152.847 327.498L82.3317 207.379L38.2598 271.854L99.0791 301.884L152.847 327.498Z" fill="#D8D8D8"/>
<path fill-rule="evenodd" clip-rule="evenodd" d="M29.4473 327.498L89.0755 328.892L89.3851 403.455L29.4473 327.498Z" fill="#D8D8D8"/>
<path fill-rule="evenodd" clip-rule="evenodd" d="M89.0723 328.434L99.0777 301.883L152.845 327.496L89.3819 403.454L89.0723 328.434Z" fill="#BCBFC3"/>
<path fill-rule="evenodd" clip-rule="evenodd" d="M99.0759 301.885L89.0705 328.893L29.4422 327.499C29.4422 327.499 28.829 331.9 31.2051 316.9C33.5812 301.9 38.2566 271.855 38.2566 271.855L99.0759 301.885Z" fill="white"/>
<path fill-rule="evenodd" clip-rule="evenodd" d="M216.311 136.722L290.351 119.057L269.197 89.0273L216.311 136.722Z" fill="#D8D8D8"/>
<path fill-rule="evenodd" clip-rule="evenodd" d="M322.965 131.422L230.889 198.196L216.311 136.721L290.351 119.057L322.965 131.422Z" fill="#DFDFDF"/>
<path fill-rule="evenodd" clip-rule="evenodd" d="M322.967 131.422L320.322 173.817L230.891 198.196L322.967 131.422Z" fill="#A1A7AF"/>
<path fill-rule="evenodd" clip-rule="evenodd" d="M320.32 173.816L374.969 249.774L272.365 198.196L320.32 173.816Z" fill="#D8D8D8"/>
<path fill-rule="evenodd" clip-rule="evenodd" d="M272.363 198.195L227.727 286.6L230.148 214.034L272.363 198.195Z" fill="#D8D8D8"/>
<path fill-rule="evenodd" clip-rule="evenodd" d="M272.363 198.195L374.967 249.773L294.756 331.913L227.727 286.6L272.363 198.195Z" fill="#DFDFDF"/>
<path fill-rule="evenodd" clip-rule="evenodd" d="M227.731 286.6L294.76 331.913L223.363 385.79L227.731 286.6Z" fill="#A1A7AF"/>
<path fill-rule="evenodd" clip-rule="evenodd" d="M406.702 369.893L393.48 391.09L375.852 431.718L404.939 466.164L406.702 369.893Z" fill="#8A929E"/>
<path fill-rule="evenodd" clip-rule="evenodd" d="M223.362 385.791V482.946L193.393 440.551L223.362 385.791Z" fill="#EAEEEE"/>
<path fill-rule="evenodd" clip-rule="evenodd" d="M149.322 508.559L262.147 603.947V675.488L238.348 673.722L95.5547 540.355L149.322 508.559Z" fill="#E0E0E0"/>
<path fill-rule="evenodd" clip-rule="evenodd" d="M89.3867 403.455L95.5568 540.355L213.285 471.018L193.397 440.551L152.85 418.47L89.3867 403.455Z" fill="#BCBFC3"/>
<path fill-rule="evenodd" clip-rule="evenodd" d="M152.85 327.498V418.47L152.944 534.232L89.3867 403.455L152.85 327.498Z" fill="white"/>
<path fill-rule="evenodd" clip-rule="evenodd" d="M193.394 440.551L223.363 482.946L262.146 603.948L149.322 508.559L193.394 440.551Z" fill="#F8F8F8"/>
<path fill-rule="evenodd" clip-rule="evenodd" d="M152.85 418.471L193.396 440.551L152.943 534.233L152.85 418.471Z" fill="#838E9C"/>
<path fill-rule="evenodd" clip-rule="evenodd" d="M223.365 385.791L193.396 440.551L152.85 418.47L223.365 385.791Z" fill="#929AA5"/>
<path fill-rule="evenodd" clip-rule="evenodd" d="M10.0547 368.126L95.5543 540.355L89.3842 403.455L55.2761 360.695L10.0547 368.126Z" fill="#F2F2F2"/>
<path fill-rule="evenodd" clip-rule="evenodd" d="M294.76 331.914L286.827 398.156L262.147 603.948L223.363 482.946L223.363 385.791L294.76 331.914Z" fill="#929AA5"/>
<path fill-rule="evenodd" clip-rule="evenodd" d="M396.123 316.899L313.122 312.967L294.757 331.914L286.824 398.156L306.216 420.236L393.478 391.09L406.7 369.893L405.819 357.527L396.123 316.899Z" fill="#C3C5C7"/>
<path fill-rule="evenodd" clip-rule="evenodd" d="M393.481 391.09L375.852 431.718L306.219 420.236L393.481 391.09Z" fill="#D8D8D8"/>
<path fill-rule="evenodd" clip-rule="evenodd" d="M286.827 398.156L306.218 420.237L297.404 459.099L262.146 603.948L286.827 398.156Z" fill="#B3B8BF"/>
<path fill-rule="evenodd" clip-rule="evenodd" d="M375.906 431.725L404.939 466.164L397.887 482.945L375.906 445.303V431.725Z" fill="#7A818B"/>
<path fill-rule="evenodd" clip-rule="evenodd" d="M306.219 420.236L375.908 445.303L375.852 431.718L306.219 420.236Z" fill="#A4A5A5"/>
<path fill-rule="evenodd" clip-rule="evenodd" d="M306.221 420.236L375.909 445.303L358.672 501.033L350.127 486.169L297.406 459.098L306.221 420.236Z" fill="#CECECE"/>
<path fill-rule="evenodd" clip-rule="evenodd" d="M375.906 445.303L397.887 482.945L366.155 557.136L341.475 539.471L350.123 486.169L358.668 501.032L375.906 445.303Z" fill="#8A929E"/>
<path fill-rule="evenodd" clip-rule="evenodd" d="M313.663 649.322L321.874 641.345L329.539 618.363L341.478 539.471L350.127 486.169L297.406 459.098L313.663 649.322Z" fill="#D8D8D8"/>
<path fill-rule="evenodd" clip-rule="evenodd" d="M297.404 459.098L313.66 649.322L262.146 675.488V603.947L297.404 459.098Z" fill="#929AA5"/>
<path fill-rule="evenodd" clip-rule="evenodd" d="M112.987 679.845L95.5538 540.355L52.3633 641.926L112.987 679.845Z" fill="#D8D8D8"/>
<path fill-rule="evenodd" clip-rule="evenodd" d="M10.0533 368.127L52.3623 641.927L18.8676 510.326L0.357422 414.938L10.0533 368.127Z" fill="#D8D8D8"/>
<path fill-rule="evenodd" clip-rule="evenodd" d="M10.0547 368.127L95.5543 540.356L52.3638 641.927L10.0547 368.127Z" fill="#EAEEEE"/>
<path fill-rule="evenodd" clip-rule="evenodd" d="M341.472 539.473L366.153 557.137L350.287 670.19L329.533 618.365L341.472 539.473Z" fill="#717A87"/>
<path fill-rule="evenodd" clip-rule="evenodd" d="M329.537 618.363L321.871 641.344L350.29 670.188L329.537 618.363Z" fill="#606A78"/>
<path fill-rule="evenodd" clip-rule="evenodd" d="M321.869 641.344L313.658 649.321L331.778 693.152L350.288 670.188L321.869 641.344Z" fill="#7B8695"/>
<path fill-rule="evenodd" clip-rule="evenodd" d="M313.662 649.322L322.967 670.189L256.859 745.263L249.808 718.766L224.246 756.745L238.349 673.722L262.148 675.488L313.662 649.322Z" fill="#717780"/>
<path fill-rule="evenodd" clip-rule="evenodd" d="M95.5547 540.355L238.348 673.723L224.245 756.746L112.988 679.845L95.5547 540.355Z" fill="#EAEEEE"/>
<path fill-rule="evenodd" clip-rule="evenodd" d="M225.125 804.439L224.243 756.745L112.986 679.844L225.125 804.439Z" fill="#D8D8D8"/>
<path fill-rule="evenodd" clip-rule="evenodd" d="M225.128 804.44L282.421 755.862L331.782 693.153L322.967 670.189L256.859 745.264L249.808 718.767L224.246 756.746L225.128 804.44Z" fill="#53636F"/>
</g>
</svg>
