<svg width="467" height="830" viewBox="0 0 467 830" fill="none" xmlns="http://www.w3.org/2000/svg">
<path fill-rule="evenodd" clip-rule="evenodd" d="M233.034 829.702L292.253 779.537L343.272 714.779L362.404 691.065L378.803 574.318L411.601 497.703L418.89 480.373L420.712 380.955L419.801 368.186L409.779 326.23L387.914 256.912L331.428 178.472L334.161 134.692L300.452 121.923L278.587 90.9118L233.357 0L205.695 54.4987L187.481 91.8239L167.438 108.241L124.618 144.725L85.4431 213.131L39.8903 279.714L32.6018 326.23L30.7797 337.175L16.2028 368.186L10.7365 379.131L0.714844 427.472L19.847 525.977L54.4672 661.878L117.33 701.098L233.034 829.702Z" fill="#F0F0F0"/>
<path fill-rule="evenodd" clip-rule="evenodd" d="M233.357 830L292.255 779.537L343.274 714.779L362.407 691.065L378.806 574.318L418.892 480.373L420.714 380.955L419.803 368.186L409.781 326.23L387.916 256.912L331.431 178.472L334.164 134.692L300.455 121.923L278.589 90.9118L233.357 0L223.926 140.164L210.26 176.648L194.772 338.087L158.33 337.175V431.12L200.239 453.922L231.215 497.703L271.301 622.658V696.537L246.702 694.713L232.126 780.449L233.357 830Z" fill="#A1A7AF"/>
<g opacity="0.88">
<path fill-rule="evenodd" clip-rule="evenodd" d="M210.26 176.649L124.621 144.726L167.441 108.242L223.926 140.165L210.26 176.649Z" fill="white"/>
<path fill-rule="evenodd" clip-rule="evenodd" d="M210.26 176.65L194.772 338.089L158.33 337.177L124.621 144.727L210.26 176.65Z" fill="#DEDEDE"/>
<path fill-rule="evenodd" clip-rule="evenodd" d="M223.925 140.166L239.413 204.012L231.214 397.374L194.771 338.089L210.259 176.649L223.925 140.166Z" fill="#929AA5"/>
<path fill-rule="evenodd" clip-rule="evenodd" d="M194.772 338.088L158.33 337.176V431.121L231.215 397.373L194.772 338.088Z" fill="#BCBFC3"/>
<path fill-rule="evenodd" clip-rule="evenodd" d="M124.621 144.727L158.33 337.177L85.4453 213.133L124.621 144.727Z" fill="white"/>
<path fill-rule="evenodd" clip-rule="evenodd" d="M158.328 337.175L85.4434 213.131L39.8906 279.713L102.753 310.724L158.328 337.175Z" fill="#D8D8D8"/>
<path fill-rule="evenodd" clip-rule="evenodd" d="M30.7812 337.176L92.413 338.616L92.733 415.615L30.7812 337.176Z" fill="#D8D8D8"/>
<path fill-rule="evenodd" clip-rule="evenodd" d="M92.4102 338.143L102.752 310.725L158.326 337.175L92.7302 415.615L92.4102 338.143Z" fill="#BCBFC3"/>
<path fill-rule="evenodd" clip-rule="evenodd" d="M102.75 310.726L92.4083 338.616L30.7765 337.176C30.7765 337.176 30.1427 341.721 32.5986 326.231C35.0546 310.741 39.8871 279.715 39.8871 279.715L102.75 310.726Z" fill="white"/>
<path fill-rule="evenodd" clip-rule="evenodd" d="M223.924 140.167L300.453 121.925L278.587 90.9141L223.924 140.167Z" fill="#D8D8D8"/>
<path fill-rule="evenodd" clip-rule="evenodd" d="M334.162 134.693L238.992 203.649L223.924 140.166L300.453 121.924L334.162 134.693Z" fill="#DFDFDF"/>
<path fill-rule="evenodd" clip-rule="evenodd" d="M334.164 134.693L331.431 178.474L238.994 203.649L334.164 134.693Z" fill="#A1A7AF"/>
<path fill-rule="evenodd" clip-rule="evenodd" d="M331.427 178.473L387.913 256.912L281.861 203.649L331.427 178.473Z" fill="#D8D8D8"/>
<path fill-rule="evenodd" clip-rule="evenodd" d="M281.861 203.648L235.725 294.942L238.227 220.005L281.861 203.648Z" fill="#D8D8D8"/>
<path fill-rule="evenodd" clip-rule="evenodd" d="M281.861 203.648L387.912 256.912L305.006 341.736L235.725 294.942L281.861 203.648Z" fill="#DFDFDF"/>
<path fill-rule="evenodd" clip-rule="evenodd" d="M235.727 294.941L305.008 341.735L231.213 397.373L235.727 294.941Z" fill="#A1A7AF"/>
<path fill-rule="evenodd" clip-rule="evenodd" d="M420.713 380.957L407.047 402.847L388.826 444.803L418.891 480.375L420.713 380.957Z" fill="#8A929E"/>
<path fill-rule="evenodd" clip-rule="evenodd" d="M231.212 397.373V497.703L200.236 453.922L231.212 397.373Z" fill="#EAEEEE"/>
<path fill-rule="evenodd" clip-rule="evenodd" d="M154.686 524.152L271.301 622.658V696.537L246.702 694.713L99.1113 556.987L154.686 524.152Z" fill="#E0E0E0"/>
<path fill-rule="evenodd" clip-rule="evenodd" d="M92.7363 415.615L99.1137 556.989L220.797 485.386L200.241 453.923L158.332 431.121L92.7363 415.615Z" fill="#BCBFC3"/>
<path fill-rule="evenodd" clip-rule="evenodd" d="M158.332 337.176V431.121L158.429 550.665L92.7363 415.615L158.332 337.176Z" fill="white"/>
<path fill-rule="evenodd" clip-rule="evenodd" d="M200.238 453.924L231.214 497.704L271.301 622.66L154.686 524.154L200.238 453.924Z" fill="#F8F8F8"/>
<path fill-rule="evenodd" clip-rule="evenodd" d="M158.33 431.121L200.239 453.923L158.427 550.666L158.33 431.121Z" fill="#838E9C"/>
<path fill-rule="evenodd" clip-rule="evenodd" d="M231.215 397.373L200.239 453.922L158.33 431.12L231.215 397.373Z" fill="#929AA5"/>
<path fill-rule="evenodd" clip-rule="evenodd" d="M10.7383 379.133L99.1107 556.99L92.7333 415.616L57.4791 371.459L10.7383 379.133Z" fill="#F2F2F2"/>
<path fill-rule="evenodd" clip-rule="evenodd" d="M305.008 341.736L296.809 410.143L271.299 622.659L231.213 497.703L231.213 397.374L305.008 341.736Z" fill="#929AA5"/>
<path fill-rule="evenodd" clip-rule="evenodd" d="M409.778 326.23L305.006 341.736L296.807 410.142L316.85 432.945L407.044 402.846L420.71 380.956L419.799 368.186L409.778 326.23Z" fill="#C3C5C7"/>
<path fill-rule="evenodd" clip-rule="evenodd" d="M407.048 402.848L388.827 444.804L316.854 432.947L407.048 402.848Z" fill="#D8D8D8"/>
<path fill-rule="evenodd" clip-rule="evenodd" d="M296.81 410.143L316.854 432.945L307.743 473.077L271.301 622.659L296.81 410.143Z" fill="#B3B8BF"/>
<path fill-rule="evenodd" clip-rule="evenodd" d="M388.883 444.809L418.891 480.373L411.602 497.703L388.883 458.831V444.809Z" fill="#7A818B"/>
<path fill-rule="evenodd" clip-rule="evenodd" d="M316.854 432.945L388.884 458.831L388.827 444.802L316.854 432.945Z" fill="#A4A5A5"/>
<path fill-rule="evenodd" clip-rule="evenodd" d="M316.855 432.945L388.885 458.831L371.068 516.382L362.236 501.033L307.744 473.077L316.855 432.945Z" fill="#CECECE"/>
<path fill-rule="evenodd" clip-rule="evenodd" d="M388.881 458.832L411.601 497.704L378.803 574.319L353.293 556.078L362.232 501.033L371.064 516.383L388.881 458.832Z" fill="#8A929E"/>
<path fill-rule="evenodd" clip-rule="evenodd" d="M324.547 669.518L333.034 661.28L340.957 637.548L353.297 556.078L362.236 501.034L307.744 473.078L324.547 669.518Z" fill="#D8D8D8"/>
<path fill-rule="evenodd" clip-rule="evenodd" d="M307.743 473.078L324.546 669.518L271.301 696.539V622.66L307.743 473.078Z" fill="#929AA5"/>
<path fill-rule="evenodd" clip-rule="evenodd" d="M117.13 701.036L99.1105 556.988L54.4688 661.878L117.13 701.036Z" fill="#D8D8D8"/>
<path fill-rule="evenodd" clip-rule="evenodd" d="M10.7365 379.133L54.4672 661.88L19.847 525.979L0.714844 427.473L10.7365 379.133Z" fill="#D8D8D8"/>
<path fill-rule="evenodd" clip-rule="evenodd" d="M10.7383 379.133L99.1107 556.99L54.469 661.88L10.7383 379.133Z" fill="#EAEEEE"/>
<path fill-rule="evenodd" clip-rule="evenodd" d="M353.291 556.078L378.801 574.32L362.402 691.067L340.951 637.548L353.291 556.078Z" fill="#717A87"/>
<path fill-rule="evenodd" clip-rule="evenodd" d="M340.954 637.547L333.031 661.279L362.405 691.066L340.954 637.547Z" fill="#606A78"/>
<path fill-rule="evenodd" clip-rule="evenodd" d="M333.03 661.279L324.543 669.517L343.272 714.78L362.404 691.066L333.03 661.279Z" fill="#7B8695"/>
<path fill-rule="evenodd" clip-rule="evenodd" d="M324.547 669.516L334.165 691.064L265.836 768.592L258.548 741.229L232.127 780.449L246.704 694.713L271.302 696.537L324.547 669.516Z" fill="#717780"/>
<path fill-rule="evenodd" clip-rule="evenodd" d="M99.1113 556.988L246.702 694.713L232.126 780.45L117.13 701.035L99.1113 556.988Z" fill="#EAEEEE"/>
<path fill-rule="evenodd" clip-rule="evenodd" d="M233.357 830L232.124 780.449L117.129 701.035L233.357 830Z" fill="#D8D8D8"/>
<path fill-rule="evenodd" clip-rule="evenodd" d="M233.357 830L292.257 779.539L343.276 714.781L334.165 691.066L265.836 768.594L258.548 741.231L232.127 780.451L233.357 830Z" fill="#53636F"/>
</g>
</svg>
