<svg width="2658" height="595" viewBox="0 0 2658 595" fill="none" xmlns="http://www.w3.org/2000/svg">
<path d="M795.116 53.2603C703.857 20.5311 638.014 55.8079 616.5 77.5375C555.808 138.837 488.711 11.1566 403 20.8908C342.595 27.7511 318.257 69.476 258 77.5375C153.795 91.4785 70 0.659882 0 0.659882V595H2658V20.8908C2658 20.8908 2532.78 96.7724 2447.5 85.6298C2392.86 78.491 2372.37 35.8327 2317.5 30.7815C2257.35 25.2444 2226.5 68.5 2167.5 68.5C2139.22 68.5 2117.58 19.0925 2067.94 20.8908C2005.9 23.1387 2015.91 77.5375 1945.37 85.6298C1874.82 93.7222 1827.29 27.6345 1816.28 30.7815C1805.27 33.9285 1780.26 83.382 1713.21 85.6298C1646.17 87.8777 1645.17 9.65141 1543.1 0.659882C1441.04 -8.33165 1387 77.5375 1301.45 77.5375C1215.89 77.5375 1118.83 -2.48703 1029.77 44.2689C940.711 91.0249 909.191 94.1718 795.116 53.2603Z" fill="#8E93AC" fill-opacity="0.26"/>
</svg>
