<svg width="270" height="127" viewBox="0 0 270 127" fill="none" xmlns="http://www.w3.org/2000/svg">
<g clip-path="url(#clip0_1134_4018)">
<path d="M248.787 238.021V73.5352L151.08 24.7988V238.021H248.787Z" fill="#023252"/>
<path d="M61.0067 76.5813H36.5801L132.76 24.7988L61.0067 76.5813Z" fill="#033B60"/>
<path d="M51.8457 241.067V70.4893L134.339 21.7529L222.832 63.1618V241.067H51.8457Z" fill="#075284"/>
<path d="M169.4 20.2305H128.18L228.94 76.5819H235.046H261L169.4 20.2305Z" fill="#3189C3"/>
<path d="M45.7394 76.5819L132.759 24.7995L225.886 79.628H259.473L260.999 76.5819H235.046L138.866 20.2305H128.179L35.0527 76.5819H45.7394Z" fill="#1972AC"/>
<rect x="90" y="109" width="92" height="24" fill="#4F94C2"/>
<rect x="95" y="115" width="80" height="12" fill="black"/>
<path d="M140.394 8.12589C140.394 15.8211 136.976 24.7989 132.76 24.7989C128.545 24.7989 125.127 15.8211 125.127 8.12589C125.127 3.87593 128.545 0.430664 132.76 0.430664C136.976 0.430664 140.394 3.87593 140.394 8.12589Z" fill="#1972AC"/>
<path d="M135.814 8.65523C135.814 12.1074 134.447 17.1841 132.76 17.1841C131.074 17.1841 129.707 13.1227 129.707 8.65523C129.707 6.6365 131.074 5 132.76 5C134.447 5 135.814 6.6365 135.814 8.65523Z" fill="black"/>
<path d="M180.184 88.7656H182.184V86.7656H180.184V88.7656ZM192.128 99.0713L192.128 101.071L192.128 101.071L192.128 99.0713ZM193.827 98.9658H195.827V96.7049L193.583 96.9808L193.827 98.9658ZM193.827 211.068L194.073 213.053L195.827 212.836V211.068H193.827ZM183.594 221.268V223.268H185.594L185.594 221.268L183.594 221.268ZM88.0439 221.268L86.0439 221.268L86.044 223.268H88.0439V221.268ZM77.8008 211.067H75.8008V212.836L77.5566 213.052L77.8008 211.067ZM77.8008 98.9648L78.0466 96.98L75.8008 96.7019V98.9648H77.8008ZM79.5127 99.0713L79.5127 101.071L79.5128 101.071L79.5127 99.0713ZM91.4561 88.7656V86.7656H89.4561V88.7656H91.4561ZM180.184 88.7656H178.184C178.184 95.8287 184.714 101.071 192.128 101.071V99.0713V97.0713C186.349 97.0713 182.184 93.0859 182.184 88.7656H180.184ZM192.128 99.0713L192.128 101.071C192.791 101.071 193.44 101.029 194.071 100.951L193.827 98.9658L193.583 96.9808C193.104 97.0396 192.619 97.0713 192.128 97.0713L192.128 99.0713ZM193.827 98.9658H191.827V211.068H193.827H195.827V98.9658H193.827ZM193.827 211.068L193.582 209.083C187.043 209.893 181.594 214.835 181.594 221.268L183.594 221.268L185.594 221.268C185.594 217.319 189.039 213.676 194.073 213.053L193.827 211.068ZM183.594 221.268V219.268H88.0439V221.268V223.268H183.594V221.268ZM88.0439 221.268L90.0439 221.268C90.0438 214.831 84.5888 209.887 78.0449 209.082L77.8008 211.067L77.5566 213.052C82.5944 213.672 86.0439 217.317 86.0439 221.268L88.0439 221.268ZM77.8008 211.067H79.8008V98.9648H77.8008H75.8008V211.067H77.8008ZM77.8008 98.9648L77.555 100.95C78.1922 101.029 78.8461 101.071 79.5127 101.071V99.0713V97.0713C79.0169 97.0713 78.5273 97.0395 78.0466 96.98L77.8008 98.9648ZM79.5127 99.0713L79.5128 101.071C86.9265 101.071 93.4561 95.8285 93.4561 88.7656H91.4561H89.4561C89.4561 93.0859 85.2914 97.0711 79.5126 97.0713L79.5127 99.0713ZM91.4561 88.7656V90.7656H180.184V88.7656V86.7656H91.4561V88.7656Z" fill="#063F65"/>
</g>
<defs>
<clipPath id="clip0_1134_4018">
<rect width="270" height="127" fill="white"/>
</clipPath>
</defs>
</svg>
