<svg width="270" height="242" viewBox="0 0 270 242" fill="none" xmlns="http://www.w3.org/2000/svg">
<g clip-path="url(#clip0_1182_4598)">
<path d="M134.287 242V118.636H155.66V242H134.287Z" fill="#A6A6A6"/>
<path d="M248.787 111.021V-53.4648L151.08 -102.201V111.021H248.787Z" fill="#023252"/>
<path d="M51.8457 114.067V-56.5107L134.339 -105.247L222.832 -63.8382V114.067H51.8457Z" fill="#075284"/>
<path d="M35 120V108H261V120H35Z" fill="#073351"/>
<rect x="90" y="-18" width="92" height="24" fill="#4F94C2"/>
<rect x="109.334" y="20.6406" width="49.9067" height="31.5063" stroke="#E5BE62" stroke-width="2" stroke-linejoin="round"/>
<path d="M157.187 21.1631H111.387L134.287 39.4392L157.187 21.1631Z" stroke="#E5BE62" stroke-width="2" stroke-linejoin="round"/>
<path d="M117.665 68.2797C117.665 69.7905 117.192 70.9683 116.248 71.813C115.303 72.6416 113.903 73.0558 112.046 73.0558H108.382V80.5612H107.283V63.4548H112.046C113.935 63.4548 115.344 63.8934 116.272 64.7706C117.2 65.6317 117.665 66.8013 117.665 68.2797ZM112.046 72.0811C115.059 72.0811 116.565 70.814 116.565 68.2797C116.565 67.0288 116.207 66.0784 115.491 65.4286C114.774 64.7625 113.626 64.4295 112.046 64.4295H108.382V72.0811H112.046Z" fill="#E5BE62"/>
<path d="M128.263 80.7562C126.684 80.7562 125.259 80.3907 123.989 79.6596C122.718 78.9123 121.725 77.8726 121.009 76.5405C120.292 75.2084 119.934 73.7056 119.934 72.0324C119.934 70.3428 120.292 68.8401 121.009 67.5242C121.725 66.1921 122.718 65.1605 123.989 64.4295C125.259 63.6822 126.684 63.3085 128.263 63.3085C129.843 63.3085 131.268 63.6822 132.538 64.4295C133.808 65.1605 134.801 66.1921 135.518 67.5242C136.234 68.8401 136.593 70.3428 136.593 72.0324C136.593 73.7056 136.234 75.2084 135.518 76.5405C134.801 77.8726 133.808 78.9123 132.538 79.6596C131.268 80.3907 129.843 80.7562 128.263 80.7562ZM128.263 79.7815C129.615 79.7815 130.836 79.4647 131.927 78.8311C133.018 78.1975 133.873 77.2959 134.492 76.1262C135.127 74.9565 135.445 73.5919 135.445 72.0324C135.445 70.4566 135.127 69.0838 134.492 67.9141C133.873 66.7445 133.018 65.8428 131.927 65.2093C130.836 64.5757 129.615 64.2589 128.263 64.2589C126.912 64.2589 125.69 64.5757 124.599 65.2093C123.508 65.8428 122.645 66.7445 122.01 67.9141C121.375 69.0838 121.057 70.4566 121.057 72.0324C121.057 73.5919 121.375 74.9565 122.01 76.1262C122.645 77.2959 123.508 78.1975 124.599 78.8311C125.69 79.4647 126.912 79.7815 128.263 79.7815Z" fill="#E5BE62"/>
<path d="M144.874 80.7318C143.767 80.7318 142.798 80.5369 141.968 80.147C141.137 79.7571 140.486 79.2291 140.013 78.563C139.557 77.897 139.297 77.1578 139.232 76.3455H140.38C140.51 77.239 140.925 78.0351 141.626 78.7336C142.342 79.4322 143.425 79.7815 144.874 79.7815C145.721 79.7815 146.454 79.6271 147.073 79.3185C147.708 79.0098 148.196 78.5874 148.538 78.0513C148.88 77.5152 149.051 76.9222 149.051 76.2724C149.051 75.4439 148.848 74.786 148.441 74.2986C148.05 73.8112 147.553 73.4457 146.951 73.202C146.364 72.9584 145.566 72.6984 144.557 72.4223C143.449 72.1298 142.554 71.8374 141.87 71.545C141.202 71.2526 140.632 70.8058 140.16 70.2047C139.704 69.5874 139.476 68.7508 139.476 67.6948C139.476 66.8826 139.688 66.1434 140.111 65.4773C140.551 64.795 141.17 64.2589 141.968 63.869C142.765 63.4791 143.686 63.2842 144.728 63.2842C146.242 63.2842 147.464 63.6578 148.392 64.4051C149.32 65.1524 149.874 66.0703 150.053 67.1587H148.88C148.783 66.7201 148.563 66.2733 148.221 65.8185C147.895 65.3636 147.423 64.99 146.804 64.6975C146.202 64.3889 145.477 64.2345 144.63 64.2345C143.49 64.2345 142.529 64.5513 141.748 65.1849C140.966 65.8022 140.575 66.6307 140.575 67.6705C140.575 68.499 140.779 69.165 141.186 69.6686C141.593 70.156 142.09 70.5297 142.676 70.7896C143.278 71.0333 144.085 71.2851 145.094 71.545C146.218 71.8537 147.105 72.1542 147.757 72.4466C148.424 72.7228 148.986 73.1695 149.442 73.7869C149.914 74.388 150.15 75.2084 150.15 76.2481C150.15 77.0116 149.947 77.7345 149.54 78.4168C149.133 79.0991 148.53 79.6596 147.732 80.0982C146.951 80.5206 145.998 80.7318 144.874 80.7318Z" fill="#E5BE62"/>
<path d="M162.919 63.4548V64.3807H158.033V80.5612H156.934V64.3807H152.049V63.4548H162.919Z" fill="#E5BE62"/>
<path d="M180.184 -38.2344H182.184V-40.2344H180.184V-38.2344ZM192.128 -27.9287L192.128 -25.9287L192.128 -25.9287L192.128 -27.9287ZM193.827 -28.0342H195.827V-30.2951L193.583 -30.0192L193.827 -28.0342ZM193.827 84.0684L194.073 86.0532L195.827 85.8361V84.0684H193.827ZM183.594 94.2676V96.2676H185.594L185.594 94.2676L183.594 94.2676ZM88.0439 94.2676L86.0439 94.2676L86.044 96.2676H88.0439V94.2676ZM77.8008 84.0674H75.8008V85.8365L77.5566 86.0524L77.8008 84.0674ZM77.8008 -28.0352L78.0466 -30.02L75.8008 -30.2981V-28.0352H77.8008ZM79.5127 -27.9287L79.5127 -25.9287L79.5128 -25.9287L79.5127 -27.9287ZM91.4561 -38.2344V-40.2344H89.4561V-38.2344H91.4561ZM180.184 -38.2344H178.184C178.184 -31.1713 184.714 -25.9287 192.128 -25.9287V-27.9287V-29.9287C186.349 -29.9287 182.184 -33.9141 182.184 -38.2344H180.184ZM192.128 -27.9287L192.128 -25.9287C192.791 -25.9287 193.44 -25.9715 194.071 -26.0491L193.827 -28.0342L193.583 -30.0192C193.104 -29.9604 192.619 -29.9287 192.128 -29.9287L192.128 -27.9287ZM193.827 -28.0342H191.827V84.0684H193.827H195.827V-28.0342H193.827ZM193.827 84.0684L193.582 82.0835C187.043 82.8927 181.594 87.8349 181.594 94.2676L183.594 94.2676L185.594 94.2676C185.594 90.3193 189.039 86.6761 194.073 86.0532L193.827 84.0684ZM183.594 94.2676V92.2676H88.0439V94.2676V96.2676H183.594V94.2676ZM88.0439 94.2676L90.0439 94.2675C90.0438 87.8312 84.5888 82.8873 78.0449 82.0823L77.8008 84.0674L77.5566 86.0524C82.5944 86.6721 86.0439 90.3171 86.0439 94.2676L88.0439 94.2676ZM77.8008 84.0674H79.8008V-28.0352H77.8008H75.8008V84.0674H77.8008ZM77.8008 -28.0352L77.555 -26.0503C78.1922 -25.9714 78.8461 -25.9287 79.5127 -25.9287V-27.9287V-29.9287C79.0169 -29.9287 78.5273 -29.9605 78.0466 -30.02L77.8008 -28.0352ZM79.5127 -27.9287L79.5128 -25.9287C86.9265 -25.9289 93.4561 -31.1715 93.4561 -38.2344H91.4561H89.4561C89.4561 -33.9141 85.2914 -29.9289 79.5126 -29.9287L79.5127 -27.9287ZM91.4561 -38.2344V-36.2344H180.184V-38.2344V-40.2344H91.4561V-38.2344Z" fill="#063F65"/>
</g>
<defs>
<clipPath id="clip0_1182_4598">
<rect width="270" height="242" fill="white"/>
</clipPath>
</defs>
</svg>
