<svg width="229" height="242" viewBox="0 0 229 242" fill="none" xmlns="http://www.w3.org/2000/svg">
<g clip-path="url(#clip0_1134_4040)">
<path d="M102.287 242V118.636H123.66V242H102.287Z" fill="#A6A6A6"/>
<path d="M216.787 111.021V-53.4648L119.08 -102.201V111.021H216.787Z" fill="#023252"/>
<path d="M19.8457 114.067V-56.5107L102.339 -105.247L190.832 -63.8382V114.067H19.8457Z" fill="#075284"/>
<path d="M0 120.159V107.975H225.947V120.159H0Z" fill="#073351"/>
<rect x="58.0137" y="-18.4355" width="91.6" height="24.3682" fill="#4F94C2"/>
<rect x="77.334" y="20.6406" width="49.9067" height="31.5063" stroke="#E5BE62" stroke-width="2" stroke-linejoin="round"/>
<path d="M125.187 21.1631H79.3867L102.287 39.4392L125.187 21.1631Z" stroke="#E5BE62" stroke-width="2" stroke-linejoin="round"/>
<path d="M85.6645 68.2797C85.6645 69.7905 85.1923 70.9683 84.2478 71.813C83.3033 72.6416 81.9028 73.0558 80.0464 73.0558H76.3824V80.5612H75.2832V63.4548H80.0464C81.9354 63.4548 83.344 63.8934 84.2722 64.7706C85.2004 65.6317 85.6645 66.8013 85.6645 68.2797ZM80.0464 72.0811C83.059 72.0811 84.5653 70.814 84.5653 68.2797C84.5653 67.0288 84.2071 66.0784 83.4906 65.4286C82.774 64.7625 81.626 64.4295 80.0464 64.4295H76.3824V72.0811H80.0464Z" fill="#E5BE62"/>
<path d="M96.2632 80.7562C94.6836 80.7562 93.2588 80.3907 91.9886 79.6596C90.7184 78.9123 89.725 77.8726 89.0085 76.5405C88.292 75.2084 87.9337 73.7056 87.9337 72.0324C87.9337 70.3428 88.292 68.8401 89.0085 67.5242C89.725 66.1921 90.7184 65.1605 91.9886 64.4295C93.2588 63.6822 94.6836 63.3085 96.2632 63.3085C97.8428 63.3085 99.2677 63.6822 100.538 64.4295C101.808 65.1605 102.801 66.1921 103.518 67.5242C104.234 68.8401 104.593 70.3428 104.593 72.0324C104.593 73.7056 104.234 75.2084 103.518 76.5405C102.801 77.8726 101.808 78.9123 100.538 79.6596C99.2677 80.3907 97.8428 80.7562 96.2632 80.7562ZM96.2632 79.7815C97.6148 79.7815 98.8362 79.4647 99.9272 78.8311C101.018 78.1975 101.873 77.2959 102.492 76.1262C103.127 74.9565 103.445 73.5919 103.445 72.0324C103.445 70.4566 103.127 69.0838 102.492 67.9141C101.873 66.7445 101.018 65.8428 99.9272 65.2093C98.8362 64.5757 97.6148 64.2589 96.2632 64.2589C94.9116 64.2589 93.6903 64.5757 92.5992 65.2093C91.5082 65.8428 90.6451 66.7445 90.01 67.9141C89.3749 69.0838 89.0574 70.4566 89.0574 72.0324C89.0574 73.5919 89.3749 74.9565 90.01 76.1262C90.6451 77.2959 91.5082 78.1975 92.5992 78.8311C93.6903 79.4647 94.9116 79.7815 96.2632 79.7815Z" fill="#E5BE62"/>
<path d="M112.874 80.7318C111.767 80.7318 110.798 80.5369 109.968 80.147C109.137 79.7571 108.486 79.2291 108.013 78.563C107.557 77.897 107.297 77.1578 107.232 76.3455H108.38C108.51 77.239 108.925 78.0351 109.626 78.7336C110.342 79.4322 111.425 79.7815 112.874 79.7815C113.721 79.7815 114.454 79.6271 115.073 79.3185C115.708 79.0098 116.196 78.5874 116.538 78.0513C116.88 77.5152 117.051 76.9222 117.051 76.2724C117.051 75.4439 116.848 74.786 116.441 74.2986C116.05 73.8112 115.553 73.4457 114.951 73.202C114.364 72.9584 113.566 72.6984 112.557 72.4223C111.449 72.1298 110.554 71.8374 109.87 71.545C109.202 71.2526 108.632 70.8058 108.16 70.2047C107.704 69.5874 107.476 68.7508 107.476 67.6948C107.476 66.8826 107.688 66.1434 108.111 65.4773C108.551 64.795 109.17 64.2589 109.968 63.869C110.765 63.4791 111.686 63.2842 112.728 63.2842C114.242 63.2842 115.464 63.6578 116.392 64.4051C117.32 65.1524 117.874 66.0703 118.053 67.1587H116.88C116.783 66.7201 116.563 66.2733 116.221 65.8185C115.895 65.3636 115.423 64.99 114.804 64.6975C114.202 64.3889 113.477 64.2345 112.63 64.2345C111.49 64.2345 110.529 64.5513 109.748 65.1849C108.966 65.8022 108.575 66.6307 108.575 67.6705C108.575 68.499 108.779 69.165 109.186 69.6686C109.593 70.156 110.09 70.5297 110.676 70.7896C111.278 71.0333 112.085 71.2851 113.094 71.545C114.218 71.8537 115.105 72.1542 115.757 72.4466C116.424 72.7228 116.986 73.1695 117.442 73.7869C117.914 74.388 118.15 75.2084 118.15 76.2481C118.15 77.0116 117.947 77.7345 117.54 78.4168C117.133 79.0991 116.53 79.6596 115.732 80.0982C114.951 80.5206 113.998 80.7318 112.874 80.7318Z" fill="#E5BE62"/>
<path d="M130.919 63.4548V64.3807H126.033V80.5612H124.934V64.3807H120.049V63.4548H130.919Z" fill="#E5BE62"/>
<path d="M148.184 -38.2344H150.184V-40.2344H148.184V-38.2344ZM160.128 -27.9287L160.128 -25.9287L160.128 -25.9287L160.128 -27.9287ZM161.827 -28.0342H163.827V-30.2951L161.583 -30.0192L161.827 -28.0342ZM161.827 84.0684L162.073 86.0532L163.827 85.8361V84.0684H161.827ZM151.594 94.2676V96.2676H153.594L153.594 94.2676L151.594 94.2676ZM56.0439 94.2676L54.0439 94.2676L54.044 96.2676H56.0439V94.2676ZM45.8008 84.0674H43.8008V85.8365L45.5566 86.0524L45.8008 84.0674ZM45.8008 -28.0352L46.0466 -30.02L43.8008 -30.2981V-28.0352H45.8008ZM47.5127 -27.9287L47.5127 -25.9287L47.5128 -25.9287L47.5127 -27.9287ZM59.4561 -38.2344V-40.2344H57.4561V-38.2344H59.4561ZM148.184 -38.2344H146.184C146.184 -31.1713 152.714 -25.9287 160.128 -25.9287V-27.9287V-29.9287C154.349 -29.9287 150.184 -33.9141 150.184 -38.2344H148.184ZM160.128 -27.9287L160.128 -25.9287C160.791 -25.9287 161.44 -25.9715 162.071 -26.0491L161.827 -28.0342L161.583 -30.0192C161.104 -29.9604 160.619 -29.9287 160.128 -29.9287L160.128 -27.9287ZM161.827 -28.0342H159.827V84.0684H161.827H163.827V-28.0342H161.827ZM161.827 84.0684L161.582 82.0835C155.043 82.8927 149.594 87.8349 149.594 94.2676L151.594 94.2676L153.594 94.2676C153.594 90.3193 157.039 86.6761 162.073 86.0532L161.827 84.0684ZM151.594 94.2676V92.2676H56.0439V94.2676V96.2676H151.594V94.2676ZM56.0439 94.2676L58.0439 94.2675C58.0438 87.8312 52.5888 82.8873 46.0449 82.0823L45.8008 84.0674L45.5566 86.0524C50.5944 86.6721 54.0439 90.3171 54.0439 94.2676L56.0439 94.2676ZM45.8008 84.0674H47.8008V-28.0352H45.8008H43.8008V84.0674H45.8008ZM45.8008 -28.0352L45.555 -26.0503C46.1922 -25.9714 46.8461 -25.9287 47.5127 -25.9287V-27.9287V-29.9287C47.0169 -29.9287 46.5273 -29.9605 46.0466 -30.02L45.8008 -28.0352ZM47.5127 -27.9287L47.5128 -25.9287C54.9265 -25.9289 61.4561 -31.1715 61.4561 -38.2344H59.4561H57.4561C57.4561 -33.9141 53.2914 -29.9289 47.5126 -29.9287L47.5127 -27.9287ZM59.4561 -38.2344V-36.2344H148.184V-38.2344V-40.2344H59.4561V-38.2344Z" fill="#063F65"/>
</g>
<defs>
<clipPath id="clip0_1134_4040">
<rect width="229" height="242" fill="white"/>
</clipPath>
</defs>
</svg>
