<svg width="229" height="127" viewBox="0 0 229 127" fill="none" xmlns="http://www.w3.org/2000/svg">
<g clip-path="url(#clip0_1134_4018)">
<path d="M216.787 238.021V73.5352L119.08 24.7988V238.021H216.787Z" fill="#023252"/>
<path d="M29.0067 76.5813H4.58008L100.76 24.7988L29.0067 76.5813Z" fill="#033B60"/>
<path d="M19.8457 241.067V70.4893L102.339 21.7529L190.832 63.1618V241.067H19.8457Z" fill="#075284"/>
<path d="M137.4 20.2305H96.1797L196.94 76.5819H203.046H229L137.4 20.2305Z" fill="#3189C3"/>
<path d="M13.7394 76.5819L100.759 24.7995L193.886 79.628H227.473L228.999 76.5819H203.046L106.866 20.2305H96.1794L3.05273 76.5819H13.7394Z" fill="#1972AC"/>
<rect x="58.0137" y="108.564" width="91.6" height="24.3682" fill="#4F94C2"/>
<rect x="64.1191" y="114.657" width="79.3867" height="12.1841" fill="black"/>
<path d="M108.394 8.12589C108.394 15.8211 104.976 24.7989 100.76 24.7989C96.5445 24.7989 93.127 15.8211 93.127 8.12589C93.127 3.87593 96.5445 0.430664 100.76 0.430664C104.976 0.430664 108.394 3.87593 108.394 8.12589Z" fill="#1972AC"/>
<path d="M103.814 8.65523C103.814 12.1074 102.447 17.1841 100.76 17.1841C99.0741 17.1841 97.707 13.1227 97.707 8.65523C97.707 6.6365 99.0741 5 100.76 5C102.447 5 103.814 6.6365 103.814 8.65523Z" fill="black"/>
<path d="M148.184 88.7656H150.184V86.7656H148.184V88.7656ZM160.128 99.0713L160.128 101.071L160.128 101.071L160.128 99.0713ZM161.827 98.9658H163.827V96.7049L161.583 96.9808L161.827 98.9658ZM161.827 211.068L162.073 213.053L163.827 212.836V211.068H161.827ZM151.594 221.268V223.268H153.594L153.594 221.268L151.594 221.268ZM56.0439 221.268L54.0439 221.268L54.044 223.268H56.0439V221.268ZM45.8008 211.067H43.8008V212.836L45.5566 213.052L45.8008 211.067ZM45.8008 98.9648L46.0466 96.98L43.8008 96.7019V98.9648H45.8008ZM47.5127 99.0713L47.5127 101.071L47.5128 101.071L47.5127 99.0713ZM59.4561 88.7656V86.7656H57.4561V88.7656H59.4561ZM148.184 88.7656H146.184C146.184 95.8287 152.714 101.071 160.128 101.071V99.0713V97.0713C154.349 97.0713 150.184 93.0859 150.184 88.7656H148.184ZM160.128 99.0713L160.128 101.071C160.791 101.071 161.44 101.029 162.071 100.951L161.827 98.9658L161.583 96.9808C161.104 97.0396 160.619 97.0713 160.128 97.0713L160.128 99.0713ZM161.827 98.9658H159.827V211.068H161.827H163.827V98.9658H161.827ZM161.827 211.068L161.582 209.083C155.043 209.893 149.594 214.835 149.594 221.268L151.594 221.268L153.594 221.268C153.594 217.319 157.039 213.676 162.073 213.053L161.827 211.068ZM151.594 221.268V219.268H56.0439V221.268V223.268H151.594V221.268ZM56.0439 221.268L58.0439 221.268C58.0438 214.831 52.5888 209.887 46.0449 209.082L45.8008 211.067L45.5566 213.052C50.5944 213.672 54.0439 217.317 54.0439 221.268L56.0439 221.268ZM45.8008 211.067H47.8008V98.9648H45.8008H43.8008V211.067H45.8008ZM45.8008 98.9648L45.555 100.95C46.1922 101.029 46.8461 101.071 47.5127 101.071V99.0713V97.0713C47.0169 97.0713 46.5273 97.0395 46.0466 96.98L45.8008 98.9648ZM47.5127 99.0713L47.5128 101.071C54.9265 101.071 61.4561 95.8285 61.4561 88.7656H59.4561H57.4561C57.4561 93.0859 53.2914 97.0711 47.5126 97.0713L47.5127 99.0713ZM59.4561 88.7656V90.7656H148.184V88.7656V86.7656H59.4561V88.7656Z" fill="#063F65"/>
</g>
<defs>
<clipPath id="clip0_1134_4018">
<rect width="229" height="127" fill="white"/>
</clipPath>
</defs>
</svg>
